HIERARCHY
ROOT Hips
{
	OFFSET 0.00 0.00 0.00
	CHANNELS 6 Xposition Yposition Zposition Xrotation Yrotation Zrotation
	JOINT Spine
	{
		OFFSET 0.00000 5.89385 0.00000
		CHANNELS 3 Xrotation Yrotation Zrotation
		JOINT Head
		{
			OFFSET 0.00000 16.44715 0.00000
			CHANNELS 3 Xrotation Yrotation Zrotation
			End Site
			{
				OFFSET 0.00000 4.52755 0.00000
			}
		}
		JOINT LeftShoulder
		{
			OFFSET 0.00000 10.90038 0.00000
			CHANNELS 3 Xrotation Yrotation Zrotation
			JOINT LeftArm
			{
				OFFSET 8.21946 0.00000 0.00000
				CHANNELS 3 Xrotation Yrotation Zrotation
				JOINT LeftForeArm
				{
					OFFSET 11.09494 0.00000 0.00000
					CHANNELS 3 Yrotation Zrotation Xrotation
					JOINT LeftHand
					{
						OFFSET 9.10388 0.00000 0.00000
						CHANNELS 3 Xrotation Yrotation Zrotation
						JOINT LeftHandThumb1
						{
							OFFSET 0.00000 0.00000 0.00000
							CHANNELS 3 Xrotation Zrotation Yrotation
							End Site
							{
								OFFSET 0.00000 0.00000 3.93700
							}
						}
						End Site
						{
							OFFSET 3.93700 0.00000 0.00000
						}
					}
				}
			}
		}
		JOINT RightShoulder
		{
			OFFSET 0.00000 10.90038 0.00000
			CHANNELS 3 Xrotation Yrotation Zrotation
			JOINT RightArm
			{
				OFFSET -8.21946 0.00000 0.00000
				CHANNELS 3 Xrotation Yrotation Zrotation
				JOINT RightForeArm
				{
					OFFSET -11.09494 0.00000 0.00000
					CHANNELS 3 Yrotation Zrotation Xrotation
					JOINT RightHand
					{
						OFFSET -9.10388 0.00000 0.00000
						CHANNELS 3 Xrotation Yrotation Zrotation
						JOINT RightHandThumb1
						{
							OFFSET 0.00000 0.00000 0.00000
							CHANNELS 3 Xrotation Zrotation Yrotation
							End Site
							{
								OFFSET 0.00000 0.00000 3.93700
							}
						}
						End Site
						{
							OFFSET -3.93700 0.00000 0.00000
						}
					}
				}
			}
		}
	}
	JOINT LeftUpLeg
	{
		OFFSET 3.69794 0.00000 0.00000
		CHANNELS 3 Xrotation Yrotation Zrotation
		JOINT LeftLeg
		{
			OFFSET 0.00000 -16.18147 0.00000
			CHANNELS 3 Xrotation Yrotation Zrotation
			JOINT LeftFoot
			{
				OFFSET 0.00000 -16.50139 0.00000
				CHANNELS 3 Xrotation Yrotation Zrotation
				JOINT LeftToeBase
				{
					OFFSET 0.00000 -1.65857 6.18989
					CHANNELS 3 Xrotation Yrotation Zrotation
					End Site
					{
						OFFSET 0.00000 0.00000 2.95275
					}
				}
			}
		}
	}
	JOINT RightUpLeg
	{
		OFFSET -3.69794 0.00000 0.00000
		CHANNELS 3 Xrotation Yrotation Zrotation
		JOINT RightLeg
		{
			OFFSET 0.00000 -16.18147 0.00000
			CHANNELS 3 Xrotation Yrotation Zrotation
			JOINT RightFoot
			{
				OFFSET 0.00000 -16.50139 0.00000
				CHANNELS 3 Xrotation Yrotation Zrotation
				JOINT RightToeBase
				{
					OFFSET 0.00000 -1.65857 6.18989
					CHANNELS 3 Xrotation Yrotation Zrotation
					End Site
					{
						OFFSET 0.00000 0.00000 2.95275
					}
				}
			}
		}
	}
}
MOTION
Frames: 22
Frame Time: 0.008333
 8.2890 36.4052 -0.5756 98.7770 -63.5110 100.9718 -25.9508 1.0843 -2.8836 7.5848 12.8103 1.6443 6.0390 10.0180 32.5235 -41.0604 11.4500 -24.7642 0.0538 0.0000 21.4383 1.9560 9.0435 -12.2584 33.1476 -0.0000 26.2537 31.3933 -32.5156 -15.8856 -68.9397 1.6423 29.1640 -3.1405 -0.0000 -4.9562 0.3024 -1.2267 13.8494 32.8623 0.0000 -24.3270 -29.1807 13.8255 5.2432 12.4965 0.0000 0.0000 -7.2401 13.3206 -7.7535 7.6434 0.0000 -0.0000 -29.0564 -0.6820 -7.5286 10.8192 -0.0000 -0.0000 -7.0808 -15.7568 15.0313 11.0563 -0.0000 0.0000
 8.2864 36.4059 -0.5778 98.7858 -63.4898 100.9852 -25.9852 1.1104 -2.8876 7.5758 12.7205 1.6643 6.0298 10.0202 32.5366 -41.0547 11.4157 -24.7922 0.0736 0.0000 21.8588 1.9275 8.9918 -12.1520 33.1476 -0.0000 26.2537 31.3898 -32.5058 -15.8801 -68.9101 1.6840 29.1404 -3.1551 -0.0000 -4.9617 0.2971 -1.2007 13.8998 32.8623 0.0000 -24.3270 -29.1910 13.8409 5.2447 12.4859 -0.0000 0.0000 -7.2335 13.3113 -7.7579 7.6571 0.0000 -0.0000 -29.0641 -0.6595 -7.5251 10.8061 -0.0000 0.0000 -7.0809 -15.7648 15.0179 11.0636 -0.0000 -0.0000
 8.2829 36.4064 -0.5795 98.7959 -63.4849 100.9966 -26.0045 1.1208 -2.8836 7.5838 12.6511 1.6615 6.0264 10.0106 32.5362 -40.9939 11.3825 -24.8049 0.0812 0.0000 22.2289 1.9147 8.9193 -12.1679 33.1476 -0.0000 26.2537 31.3856 -32.4922 -15.8900 -68.8916 1.7169 29.1253 -3.1707 -0.0000 -4.9546 0.3106 -1.2517 13.9381 32.8623 0.0000 -24.3270 -29.1834 13.8590 5.2464 12.4718 0.0000 0.0000 -7.2210 13.3031 -7.7510 7.6373 -0.0000 0.0000 -29.0522 -0.6550 -7.5212 10.7855 0.0000 -0.0000 -7.0763 -15.7771 15.0160 11.0514 -0.0000 -0.0000
 8.2790 36.4067 -0.5822 98.7894 -63.4821 100.9899 -26.0188 1.1262 -2.8864 7.5799 12.5848 1.6744 6.0440 10.0104 32.5319 -40.9289 11.3364 -24.8076 0.0897 0.0000 22.5821 1.9208 8.7971 -12.3685 33.1476 -0.0000 26.2537 31.3724 -32.4734 -15.8918 -68.8705 1.7528 29.1076 -3.1968 -0.0000 -4.9678 0.3148 -1.2662 13.9617 32.8623 0.0000 -24.3270 -29.1769 13.8725 5.2492 12.4617 -0.0000 0.0000 -7.2242 13.3008 -7.7506 7.6455 0.0000 0.0000 -29.0400 -0.6613 -7.5173 10.7697 -0.0000 0.0000 -7.0778 -15.7690 15.0169 11.0551 0.0000 -0.0000
 8.2750 36.4070 -0.5837 98.7822 -63.4790 100.9837 -26.0351 1.1307 -2.8846 7.5873 12.5311 1.6819 6.0725 10.0165 32.5278 -40.9029 11.3166 -24.8083 0.0819 0.0000 22.7626 1.9170 8.7462 -12.4141 33.1476 -0.0000 26.2537 31.3706 -32.4722 -15.8938 -68.9026 1.7715 29.1057 -3.2318 -0.0000 -4.9303 0.3144 -1.2655 13.9554 32.8623 0.0000 -24.3270 -29.1617 13.8675 5.2475 12.4378 0.0000 0.0000 -7.2163 13.3029 -7.7704 7.6671 0.0000 0.0000 -29.0272 -0.6648 -7.5172 10.7522 -0.0000 -0.0000 -7.0751 -15.7655 15.0199 11.0162 -0.0000 0.0000
 8.2715 36.4072 -0.5862 98.7764 -63.4741 100.9776 -26.0468 1.1234 -2.8839 7.5786 12.4742 1.6852 6.0875 10.0319 32.5273 -40.9048 11.3219 -24.8013 0.0801 0.0000 22.9224 1.9159 8.6669 -12.5161 33.1476 -0.0000 26.2537 31.3546 -32.4742 -15.9017 -68.9585 1.7746 29.1219 -3.2502 -0.0000 -4.8987 0.3108 -1.2536 13.9265 32.8623 0.0000 -24.3270 -29.1537 13.8738 5.2497 12.4208 -0.0000 0.0000 -7.2028 13.2909 -7.7698 7.6523 -0.0000 0.0000 -29.0180 -0.6619 -7.5120 10.7384 0.0000 0.0000 -7.0730 -15.7784 15.0132 10.9844 -0.0000 0.0000
 8.2677 36.4076 -0.5891 98.7267 -63.4596 100.9250 -26.0763 1.0832 -2.8822 7.5782 12.4558 1.6886 6.0917 10.0497 32.5250 -40.8950 11.3308 -24.7845 0.0972 0.0000 22.9936 1.9132 8.5903 -12.6063 33.1476 -0.0000 26.2537 31.3401 -32.4629 -15.9224 -68.9949 1.7790 29.1326 -3.2597 -0.0000 -4.8831 0.3141 -1.2677 13.9156 32.8623 0.0000 -24.3270 -29.1661 13.8597 5.2519 12.4132 0.0000 -0.0000 -7.1935 13.2844 -7.7730 7.6345 0.0000 0.0000 -29.0184 -0.6777 -7.5093 10.7230 0.0000 -0.0000 -7.0834 -15.7932 15.0216 11.0445 0.0000 -0.0000
 8.2644 36.4079 -0.5916 98.7129 -63.4439 100.9046 -26.1017 1.0635 -2.8752 7.5761 12.4205 1.7006 6.1050 10.0760 32.5248 -40.9424 11.3448 -24.7688 0.1281 0.0000 23.0544 1.9156 8.5679 -12.6531 33.1476 -0.0000 26.2537 31.3436 -32.4610 -15.9430 -69.0241 1.7651 29.1504 -3.2526 -0.0000 -4.8882 0.3132 -1.2658 13.9000 32.8623 0.0000 -24.3270 -29.1712 13.8437 5.2586 12.4011 0.0000 0.0000 -7.1944 13.3040 -7.7831 7.6356 0.0000 0.0000 -29.0181 -0.6819 -7.4986 10.7055 0.0000 -0.0000 -7.0840 -15.7888 14.9911 11.0382 -0.0000 0.0000
 8.2608 36.4080 -0.5944 98.7090 -63.4359 100.8985 -26.1124 1.0530 -2.8752 7.5625 12.3835 1.7163 6.1041 10.0800 32.5168 -40.9729 11.3595 -24.7257 0.1540 0.0000 23.1018 1.9249 8.5559 -12.7295 33.1476 -0.0000 26.2537 31.3469 -32.4618 -15.9480 -69.0209 1.7801 29.1646 -3.2455 -0.0000 -4.9327 0.3080 -1.2489 13.8538 32.8623 0.0000 -24.3270 -29.1722 13.8573 5.2650 12.3930 -0.0000 -0.0000 -7.1973 13.2893 -7.7734 7.6409 0.0000 -0.0000 -29.0133 -0.6815 -7.4918 10.6947 0.0000 -0.0000 -7.0884 -15.7904 14.9904 11.0572 -0.0000 0.0000
 8.2582 36.4086 -0.5974 98.6514 -63.4086 100.8309 -26.1508 1.0126 -2.8713 7.5534 12.3553 1.7297 6.0350 10.0180 32.5573 -40.8993 11.4540 -24.6953 0.1372 0.0000 23.1851 1.9264 8.5526 -12.7436 33.1476 -0.0000 26.2537 31.3550 -32.4525 -15.9479 -68.9919 1.8179 29.1624 -3.2422 -0.0000 -4.9786 0.3070 -1.2472 13.8276 32.8623 0.0000 -24.3270 -29.1949 13.8065 5.2715 12.3804 -0.0000 -0.0000 -7.1875 13.3085 -7.7858 7.6473 -0.0000 0.0000 -29.0267 -0.6980 -7.4809 10.6787 -0.0000 0.0000 -7.0868 -15.8121 15.0049 11.0486 0.0000 -0.0000
 8.2565 36.4084 -0.5979 98.6661 -63.4034 100.8487 -26.1448 1.0091 -2.8683 7.5349 12.3318 1.7329 6.0039 9.9965 32.5512 -40.8584 11.4842 -24.6538 0.1225 0.0000 23.1822 1.9326 8.5871 -12.7342 33.1476 -0.0000 26.2537 31.3550 -32.4549 -15.9467 -68.9887 1.8401 29.1659 -3.2299 -0.0000 -4.9859 0.3013 -1.2252 13.8157 32.8623 0.0000 -24.3270 -29.1900 13.8199 5.2715 12.3711 -0.0000 0.0000 -7.1836 13.3048 -7.8086 7.6597 -0.0000 0.0000 -29.0377 -0.6940 -7.4822 10.6938 -0.0000 -0.0000 -7.0928 -15.8047 15.0044 11.0165 -0.0000 0.0000
 8.2526 36.4088 -0.6016 98.6377 -63.3929 100.8193 -26.1554 1.0099 -2.8757 7.5201 12.2890 1.7566 5.9929 9.9740 32.5370 -40.8324 11.4813 -24.6057 0.0986 0.0000 23.1934 1.9452 8.6371 -12.7433 33.1476 -0.0000 26.2537 31.3408 -32.4521 -15.9346 -68.9610 1.8517 29.1493 -3.2157 -0.0000 -4.9586 0.2922 -1.1895 13.8003 32.8623 0.0000 -24.3270 -29.1910 13.8120 5.2737 12.3555 0.0000 -0.0000 -7.1726 13.3008 -7.8019 7.6443 0.0000 -0.0000 -29.0371 -0.6818 -7.4765 10.6911 0.0000 0.0000 -7.0981 -15.8147 14.9601 11.0269 0.0000 0.0000
 8.2509 36.4085 -0.6034 98.6424 -63.3889 100.8224 -26.1504 1.0153 -2.8739 7.5108 12.2692 1.7700 6.0199 9.9845 32.4984 -40.8330 11.4529 -24.5590 0.0814 0.0000 23.2262 1.9469 8.6732 -12.7034 33.1476 -0.0000 26.2537 31.3450 -32.4429 -15.9170 -68.9523 1.8593 29.1200 -3.1843 -0.0000 -4.9445 0.2910 -1.1858 13.7901 32.8623 0.0000 -24.3270 -29.1919 13.8177 5.2790 12.3555 -0.0000 0.0000 -7.1831 13.2924 -7.8069 7.6803 -0.0000 -0.0000 -29.0455 -0.6694 -7.4708 10.7103 -0.0000 0.0000 -7.1146 -15.8295 14.9880 11.0752 -0.0000 0.0000
 8.2491 36.4084 -0.6057 98.6376 -63.3778 100.8098 -26.1477 1.0253 -2.8682 7.4858 12.2369 1.7951 6.0280 10.0007 32.4877 -40.8123 11.4189 -24.5575 0.0688 0.0000 23.2167 1.9485 8.6890 -12.6911 33.1476 -0.0000 26.2537 31.3523 -32.4404 -15.8754 -68.9461 1.8861 29.0789 -3.1755 -0.0000 -4.9401 0.2958 -1.2056 13.7847 32.8623 0.0000 -24.3270 -29.1990 13.8090 5.2901 12.3505 -0.0000 0.0000 -7.1807 13.2961 -7.8158 7.6577 0.0000 -0.0000 -29.0646 -0.6667 -7.4592 10.7322 0.0000 -0.0000 -7.1265 -15.8323 14.9700 11.0492 -0.0000 0.0000
 8.2467 36.4073 -0.6076 98.6400 -63.3706 100.8045 -26.1428 1.0326 -2.8570 7.4727 12.2109 1.8144 6.0457 10.0067 32.4558 -40.8045 11.3756 -24.5283 0.0801 0.0000 23.1689 1.9322 8.6978 -12.5760 33.1476 -0.0000 26.2537 31.3636 -32.4455 -15.8579 -68.9353 1.9040 29.0556 -3.1883 -0.0000 -4.9541 0.2934 -1.1933 13.8139 32.8623 0.0000 -24.3270 -29.2014 13.8213 5.3013 12.3436 0.0000 -0.0000 -7.1887 13.2864 -7.8153 7.6619 -0.0000 0.0000 -29.0751 -0.6609 -7.4479 10.7509 -0.0000 0.0000 -7.1356 -15.8425 15.0084 11.0347 0.0000 -0.0000
 8.2441 36.4062 -0.6095 98.6523 -63.3588 100.8097 -26.1444 1.0410 -2.8436 7.4668 12.1813 1.8283 6.0805 10.0521 32.4387 -40.8287 11.3254 -24.5315 0.0360 0.0000 23.2434 1.9848 8.9022 -12.6228 33.1476 -0.0000 26.2537 31.3618 -32.4478 -15.8580 -68.9638 1.8915 29.0423 -3.2219 -0.0000 -4.9367 0.2834 -1.1538 13.8006 32.8623 0.0000 -24.3270 -29.2040 13.8315 5.3126 12.3345 -0.0000 0.0000 -7.2005 13.2776 -7.8138 7.6742 0.0000 -0.0000 -29.0837 -0.6464 -7.4339 10.7597 0.0000 0.0000 -7.1505 -15.8528 14.9739 11.0465 0.0000 0.0000
 8.2411 36.4053 -0.6103 98.6531 -63.3534 100.8097 -26.1403 1.0479 -2.8387 7.4686 12.1328 1.8517 6.0845 10.0518 32.4384 -40.8013 11.3019 -24.5131 0.1165 0.0000 23.2918 1.9269 8.6806 -12.5662 33.1476 -0.0000 26.2537 31.3446 -32.4438 -15.8714 -68.9440 1.8944 29.0304 -3.2795 -0.0000 -4.9665 0.2801 -1.1420 13.7822 32.8623 0.0000 -24.3270 -29.1963 13.8279 5.3135 12.3208 -0.0000 0.0000 -7.2065 13.2794 -7.8159 7.6754 0.0000 -0.0000 -29.0911 -0.6447 -7.4315 10.7723 -0.0000 0.0000 -7.1653 -15.8547 14.9668 11.0194 0.0000 0.0000
 8.2382 36.4047 -0.6125 98.6691 -63.3461 100.8221 -26.1400 1.0568 -2.8303 7.4742 12.0913 1.8717 6.1106 10.0682 32.4420 -40.8244 11.2957 -24.4990 0.1342 0.0000 23.3813 1.9305 8.7049 -12.5558 33.1476 -0.0000 26.2537 31.3460 -32.4625 -15.8902 -68.9679 1.8750 29.0554 -3.3266 -0.0000 -4.9587 0.2801 -1.1454 13.7434 32.8623 0.0000 -24.3270 -29.1947 13.8524 5.3235 12.3117 -0.0000 0.0000 -7.2126 13.2633 -7.8155 7.6843 -0.0000 0.0000 -29.0918 -0.6424 -7.4215 10.7699 0.0000 -0.0000 -7.1643 -15.8472 14.9413 10.9884 0.0000 0.0000
 8.2353 36.4044 -0.6143 98.6733 -63.3320 100.8221 -26.1470 1.0664 -2.8188 7.4922 12.0455 1.8764 6.0726 10.0358 32.4639 -40.7677 11.3018 -24.4858 0.1366 0.0000 23.5065 1.9643 8.7705 -12.6768 33.1476 -0.0000 26.2537 31.3512 -32.4780 -15.9056 -68.9853 1.8477 29.0651 -3.3544 -0.0000 -4.9741 0.2894 -1.1840 13.7355 32.8623 0.0000 -24.3270 -29.1995 13.8655 5.3320 12.2980 -0.0000 -0.0000 -7.2115 13.2475 -7.7975 7.6759 0.0000 -0.0000 -29.0999 -0.6431 -7.4158 10.7691 0.0000 -0.0000 -7.1717 -15.8485 14.9728 10.9941 -0.0000 0.0000
 8.2323 36.4046 -0.6156 98.6733 -63.3253 100.8243 -26.1399 1.0649 -2.8116 7.4916 12.0252 1.8751 6.0455 10.0259 32.4828 -40.7102 11.3005 -24.4937 0.1051 0.0000 23.4505 2.0195 8.9609 -12.7556 33.1476 -0.0000 26.2537 31.3593 -32.4848 -15.9060 -69.0056 1.8372 29.0576 -3.3736 -0.0000 -4.9319 0.2886 -1.1790 13.7535 32.8623 0.0000 -24.3270 -29.1974 13.8905 5.3335 12.2881 -0.0000 0.0000 -7.2098 13.2277 -7.8063 7.6804 -0.0000 -0.0000 -29.0960 -0.6496 -7.4172 10.7549 0.0000 -0.0000 -7.1681 -15.8367 14.9587 11.0001 -0.0000 -0.0000
 8.2289 36.4052 -0.6172 98.6690 -63.3176 100.8219 -26.1388 1.0693 -2.8064 7.5076 12.0040 1.8834 6.0323 10.0158 32.4699 -40.7383 11.3003 -24.4424 0.1289 0.0000 23.4953 2.0288 8.9392 -12.8424 33.1476 -0.0000 26.2537 31.3633 -32.4830 -15.8987 -69.0031 1.8307 29.0316 -3.3681 -0.0000 -4.9018 0.2932 -1.1952 13.7830 32.8623 0.0000 -24.3270 -29.1920 13.8968 5.3316 12.2717 -0.0000 0.0000 -7.1999 13.2297 -7.8146 7.6795 0.0000 0.0000 -29.0826 -0.6397 -7.4168 10.7283 -0.0000 -0.0000 -7.1594 -15.8511 14.9953 11.0039 -0.0000 0.0000
 8.2251 36.4058 -0.6186 98.6801 -63.3083 100.8369 -26.1406 1.0845 -2.7953 7.5392 11.9720 1.8634 6.0467 10.0199 32.4468 -40.7500 11.2799 -24.4097 0.1214 0.0000 23.4842 2.0421 8.9908 -12.8529 33.1476 -0.0000 26.2537 31.3523 -32.4849 -15.9049 -68.9757 1.8241 29.0111 -3.3407 -0.0000 -4.8824 0.2960 -1.2063 13.7867 32.8623 0.0000 -24.3270 -29.1894 13.9297 5.3327 12.2589 0.0000 0.0000 -7.1912 13.2101 -7.8072 7.6856 -0.0000 0.0000 -29.0740 -0.6447 -7.4158 10.7024 -0.0000 -0.0000 -7.1543 -15.8499 14.9979 11.0023 -0.0000 0.0000
